<!-- sample rectangle -->
<svg width="1440" height="849" viewBox="0 0 1440 849" fill="none" xmlns="http://www.w3.org/2000/svg">
<mask id="mask0_7470_75502" style="mask-type:alpha" maskUnits="userSpaceOnUse" x="0" y="0" width="1442" height="849">
<rect width="1442" height="849" fill="white"/>
</mask>
<g mask="url(#mask0_7470_75502)">
<g opacity="0.7">
<path d="M-166.236 -567.371C-166.236 -567.371 -289.537 -676.346 -34.8809 -802.443M-123.955 -585.079C-129.464 -576.429 -260.768 -659.853 -21.7553 -788.502M-80.394 -3.52179L-58.5491 99.8638C-58.5491 99.8638 -45.7434 165.09 -42.406 215.868C-42.406 215.868 -49.8251 323.326 60.7786 394.651C171.382 465.977 175.258 520.621 175.258 520.621C175.258 520.621 208.58 577.868 64.4479 662.175C-76.9194 744.915 -132.11 803.837 -183.533 889.827M236.678 864.941C123.677 821.935 179.545 775.926 227.646 735.728C275.693 695.143 402.426 547.432 396.784 442.58C391.142 337.727 344.04 352.954 169.278 187.679C-5.48453 22.4034 158.64 -17.3854 158.64 -17.3854C175.636 -20.8722 209.078 -31.8076 206.872 -47.6552M-25.487 -11.4707C-28.6068 -7.09486 -17.8447 70.2412 3.89129 146.05C3.89129 146.05 32.9432 220.841 71.7842 258.795C110.625 296.748 125.045 373.575 125.045 373.575C125.045 373.575 133.655 435.444 218.115 506.466C286.866 571.791 162.604 616.675 125.595 645.475C88.5856 674.275 -44.4983 736.154 -97.8567 861.83C-111.397 887.511 -124.38 939.326 -157.327 958.64M75.8594 -33.4574C75.8594 -33.4574 41.0027 10.8102 81.1374 111.651C121.272 212.491 229.832 295.926 229.832 295.926C229.832 295.926 316.873 358.705 334.305 403.58C334.305 403.58 382.832 511.136 255.667 615.549C255.667 615.549 227.813 632.433 221.239 636.107C-42.2379 779.198 110.756 860.392 110.756 860.392M-3.11032 -38.2345C1.62386 -31.01 -11.0675 65.3567 35.3069 157.445C35.3069 157.445 64.7882 208.526 95.237 239.764C125.686 271.002 130.42 278.227 151.618 350.169C172.816 422.111 241.568 487.436 241.568 487.436C241.568 487.436 283.528 521.013 264.809 547.269C246.09 573.524 239.85 582.275 211.47 611.452C211.47 611.452 186.359 634.654 163.788 651.986C106.446 695.441 106.446 695.44 30.3837 765.151C-57.5554 845.974 -45.3519 917.591 -45.3519 917.591C-38.551 966.462 -26.5871 1088.09 -104.596 1145.51M-322.951 396.501C-322.951 396.501 -304.77 366.38 -217.196 299.009C-217.196 299.009 -102.94 235.809 -106.386 157.455C-106.386 157.455 -107.251 70.8579 -138.884 4.30968M-330.92 232.06C-330.92 232.06 -299.715 322.318 -199.662 237.444C-99.6083 152.57 -186.009 -12.7824 -186.009 -12.7824M-337.49 24.0645L-300.367 156.857C-300.367 156.857 -278.631 232.666 -229.033 213.939C-179.436 195.212 -173.414 131.307 -190.307 90.2996C-207.2 49.2918 -221.511 0.0414369 -221.511 0.0414369M915.763 865.435C931.06 806.546 941.452 790.121 941.452 790.121C941.452 790.121 947.906 756.113 942.848 733.166C937.791 710.22 933.206 674.594 988.925 656.986C1044.64 639.378 1078.41 598.021 1100.96 534.97C1123.51 471.918 1151.36 388.026 1151.36 388.026C1151.36 388.026 1196.81 272.517 1287.43 235.073C1378.05 197.63 1421.68 216.391 1421.68 216.391C1420.58 216.544 1533.33 260.374 1594.15 199.091C1665.14 127.722 1696.63 131.618 1696.63 131.618M976.634 828.584C976.634 828.584 983.088 794.575 978.031 771.629C972.973 748.683 968.388 713.057 1024.11 695.449C1079.83 677.841 1113.6 636.484 1136.14 573.432C1158.69 510.381 1186.54 426.489 1186.54 426.489C1186.54 426.489 1231.99 310.979 1322.61 273.536C1413.23 236.093 1456.86 254.854 1456.86 254.854C1455.76 255.007 1568.51 298.837 1629.34 237.553C1700.32 166.185 1731.81 170.08 1731.81 170.08M850.216 790.992C850.216 790.992 879.897 733.649 877.853 718.955C875.808 704.262 868.543 652.06 868.543 652.06L862.839 611.072C862.839 611.072 861.46 566.328 902.462 555.498C943.463 544.668 1029.84 519.64 1046.6 447.146C1063.36 374.651 1019.73 315.685 1112.58 259.406C1112.58 259.406 1191.33 209.03 1457.29 164.136C1664.93 128.934 1766.58 -292.783 1766.58 -292.783M583.092 -110.351C583.092 -110.351 568.051 -105.893 568.559 -70.0937C568.559 -70.0937 577.953 -21.3418 563.892 -7.16581C563.892 -7.16581 536.082 20.7486 484.063 35.4767C484.063 35.4767 435.789 44.9538 450.984 119.308C466.178 193.662 440.19 312.376 440.19 312.376C440.19 312.376 421.128 384.402 480.65 469.143C540.171 553.884 618.489 671.879 618.489 671.879C618.489 671.879 649.509 715.256 650.382 751.004C650.889 786.803 675.294 876.431 752.466 862.932C829.639 849.434 810.7 780.33 810.7 780.33C810.7 780.33 799.434 734.204 781.691 703.168C781.691 703.168 739.913 649.463 767.281 602.296C794.649 555.129 795.187 545.594 795.187 545.594C795.187 545.594 799.834 530.757 795.003 512.115C790.225 493.86 810.182 476.498 810.182 476.498C810.182 476.498 822.382 467.706 876.638 450.301C930.894 432.897 955.313 367.22 955.313 367.22L991.169 271.177C991.169 271.177 1005.7 230.92 1042.29 201.784C1042.29 201.784 1089.54 144.755 1196.27 161.436C1196.27 161.436 1473.1 221.455 1538.6 -272.487M631.095 -121.761C614.367 -81.1987 650.541 -16.8588 650.541 -16.8588C672.9 44.6733 613.932 60.3686 613.932 60.3686C549.994 88.5805 531.974 119.862 531.974 119.862C467.221 219.927 511.086 259.152 511.086 259.152C511.086 259.152 523.352 266.905 568.551 313.039C613.751 359.174 577.484 390.63 577.484 390.63C533.592 463.747 580.782 524.188 580.782 524.188C580.782 524.188 653.7 638.204 671.754 668.802C689.809 699.4 690.693 737.905 690.693 737.905C690.693 737.905 687.252 793.568 713.698 804.078C740.143 814.588 754.419 788.557 754.419 788.557C773.408 764.235 753.793 735.825 753.793 735.825L726.075 667.944C703.512 621.024 723.146 601.342 723.146 601.342L744.006 574.395C753.689 563.588 754.15 534.749 752.482 522.762C750.868 511.162 748.812 480.309 748.812 480.309C750.38 427.272 797.805 427.767 797.805 427.767L852.384 412.683C914.128 384.776 918.075 364.913 921.377 340.409C924.679 315.905 939.535 277.968 939.535 277.968C983.567 173.693 1043.46 167.329 1043.46 167.329C1043.46 167.329 1189.62 145.807 1201.23 41.7066C1213.25 -67.5733 1167.44 -174.325 1314.62 -242.107M730.209 -141.072C730.209 -141.072 705.024 -96.9678 709.459 -32.9413C714.261 31.0343 667.946 73.3488 667.946 73.3488C667.946 73.3488 560.63 146.226 585.68 240.494C585.68 240.494 594.321 270.43 627.762 344.611C627.762 344.611 648.454 394.156 635.008 458.305C621.562 522.455 644.567 588.628 644.567 588.628C644.567 588.628 655.445 615.888 672.562 594.192C689.678 572.496 705.988 558.401 705.988 558.401C705.988 558.401 724.073 543.665 716.013 501.822C707.953 459.98 707.08 424.232 707.08 424.232C707.08 424.232 698.654 382.44 774.578 357.29C850.136 332.191 846.972 325.536 846.972 325.536C846.972 325.536 888.017 312.335 880.86 260.907C873.337 209.529 900.367 50.0709 1014.13 7.43631C1014.13 7.43631 1123.6 -9.7684 1146.94 -190.392M863.101 -145.375C863.101 -145.375 805.9 -39.267 797.24 -21.1126C788.526 -3.3449 732.164 76.6314 732.164 76.6314C732.164 76.6314 681.407 145.973 662.172 187.279C642.937 228.584 659.377 247.581 659.377 247.581C659.377 247.581 660.669 256.862 686.33 293.89C711.992 330.918 741.878 285.766 741.878 285.766C751.603 272.587 770.269 245.946 770.269 245.946C770.269 245.946 792.301 211.346 791.913 192.48C791.525 173.614 799.539 150.819 799.539 150.819C821.065 80.4208 861.859 17.1953 916.146 -45.5429C952.221 -87.2349 998.542 -99.0262 998.542 -99.0262C1061.76 -118.513 1102.56 -153.888 1077.32 -190.168M906.61 -156.948L709.382 172.826C709.382 172.826 690.717 199.467 695.495 217.723C695.495 217.723 705.792 256.889 721.36 240.139C721.36 240.139 739.702 197.775 748.297 176.476C756.634 156.002 881.059 -112.793 998.307 -146.453M564.91 873.66C609.31 836.342 600.418 716.175 600.418 716.175C600.418 716.175 564.231 595.471 503.592 545.573C442.953 495.674 393.036 579.089 393.036 579.089C393.036 579.089 329.95 677.739 290.135 750.683C250.32 823.626 340.954 869.35 349.228 872.535L387.679 884.579M421.889 856.117C417.015 853.247 364.844 815.966 385.283 761.88C405.723 707.794 438.426 634.658 438.426 634.658C438.426 634.658 464.116 572.746 499.826 612.317C535.536 651.889 558.908 744.814 558.908 744.814C558.908 744.814 567.164 836.294 543.378 863.649M227.453 -42.7281C227.453 -42.7281 280.926 -6.81081 244.993 29.7231C209.06 66.2571 189.156 57.2019 194.537 95.87C199.918 134.538 216.164 144.102 230.796 142.066C278.888 139.315 293.629 164.856 316.223 193.245C338.818 221.634 382.176 211.659 392.394 151.112C402.612 90.5643 441.986 -1.63206 428.642 -70.7256M-121.488 437.445C-128.804 438.463 -183.136 449.966 -192.278 518.247C-192.278 518.247 -191.734 656.13 -73.7116 619.998C-73.7116 619.998 20.3196 599.029 8.05191 537.669C8.05191 537.669 -0.775276 420.647 -121.488 437.445ZM42.8031 519.432C42.8031 519.432 -15.6432 415.621 -61.0783 402.63C-71.1809 399.7 -94.9692 386.849 -127.622 393.364C-132.323 394.412 -201.502 406.404 -240.961 516.744C-265.37 585.179 -197.307 648.234 -163.835 663.679C-152.678 668.827 -108.728 676.507 -60.3256 646.515C-60.3256 646.515 12.6176 607.984 28.8735 593.503C38.9327 585.402 72.4882 555.9 42.8031 519.432ZM77.6054 501.581C77.6054 501.581 -33.2266 372.345 -55.7343 366.017C-60.7587 364.745 -89.6149 339.592 -133.704 349.669C-136.211 350.412 -227.671 360.381 -289.539 516.015C-343.069 651.175 -202.696 700.62 -185.934 708.536C-180.382 710.917 -113.978 724.538 -46.4148 674.142C-46.4148 674.142 61.4931 605.519 69.7771 598.059C74.414 593.866 132.284 551.52 77.6054 501.581ZM-139.784 305.974C-139.784 305.974 -254.258 314.021 -338.168 514.899C-422.078 715.777 -208.084 753.006 -208.084 753.006C-208.084 753.006 -119.645 772.233 -32.6095 700.996L110.263 602.279C110.263 602.279 192.136 547.528 112.41 483.73L-50.8077 329.067C-50.8077 329.067 -86.5288 286.738 -139.784 305.974ZM1464.13 505.323C1454.62 506.646 1382.52 521.803 1370.49 612.166C1370.49 612.166 1371.31 794.946 1527.56 746.793C1527.56 746.793 1651.99 719.228 1635.83 637.913C1635.83 637.913 1623.98 483.078 1464.13 505.323ZM1681.75 614.18C1681.75 614.18 1604.45 476.729 1544.31 459.872C1530.75 456.24 1499.63 438.892 1456.05 447.321C1449.52 448.624 1358.56 464.83 1305.8 610.919C1273.33 701.761 1363.59 784.984 1408.21 805.577C1422.93 812.201 1481.38 822.2 1545.64 782.906C1545.64 782.906 1642.22 732.02 1663.73 712.471C1676.34 701.256 1720.84 661.954 1681.75 614.18ZM1728.03 590.396C1728.03 590.396 1581.17 419.268 1551.28 410.814C1544.68 408.972 1506.18 376.097 1448.35 389.268C1445.11 390.113 1323.55 403.482 1241.85 609.57C1170.93 788.538 1356.8 854.119 1379.11 864.416C1386.29 867.753 1474.15 885.484 1564.02 818.581C1564.02 818.581 1706.87 727.752 1717.82 717.952C1723.75 712.395 1800.24 656.423 1728.03 590.396ZM1439.86 330.93C1439.86 330.93 1288.11 341.798 1177.06 607.549C1066.01 873.301 1349.23 922.97 1349.23 922.97C1349.23 922.97 1466.5 948.432 1581.63 853.972L1770.75 723.199C1770.75 723.199 1879.22 650.556 1773.53 566.327L1557.46 361.47C1557.88 361.806 1510.55 305.72 1439.86 330.93Z" stroke="#0032C6" stroke-width="2" stroke-miterlimit="10"/>
<rect x="1470" y="1185" width="1535" height="516" transform="rotate(-180 1470 1185)" fill="url(#paint0_linear_7470_75502)"/>
</g>
</g>
</svg>