<?xml version="1.0" encoding="utf-8"?>
<!-- Generator: $$$/GeneralStr/196=Adobe Illustrator 27.6.0, SVG Export Plug-In . SVG Version: 6.00 Build 0)  -->
<svg version="1.1" id="Calque_1" xmlns="http://www.w3.org/2000/svg" xmlns:xlink="http://www.w3.org/1999/xlink" x="0px" y="0px"
	 viewBox="0 0 289 106" style="enable-background:new 0 0 289 106;" xml:space="preserve">
<style type="text/css">
	.st0{enable-background:new    ;}
	.st1{fill:#FFFFFF;}
	.st2{fill:#1D9DD9;}
	.st3{fill:#198BD8;stroke:#198BD8;stroke-miterlimit:10;}
	.st4{fill:#009FE3;stroke:#009FE3;stroke-miterlimit:10;}
	.st5{fill:#365FB2;stroke:#365FB2;stroke-miterlimit:10;}
	.st6{fill:#05417C;stroke:#05417C;stroke-miterlimit:10;}
</style>
<g class="st0">
	<path class="st1" d="M130.1,55c0.6,0,1.2-0.5,1.7-1.1c0.5-0.6,0.6-1.4,0.6-2.2c0-0.9-0.3-1.5-0.8-2.2c-0.5-0.6-1.1-0.9-1.9-0.9
		h-9.6c-1.1,0-2.2-0.3-3.1-0.8s-1.9-1.1-2.5-2c-0.8-0.8-1.2-1.9-1.7-2.9c-0.5-1.1-0.6-2.3-0.6-3.6c0-1.2,0.2-2.5,0.6-3.6
		c0.5-1.1,0.9-2.2,1.7-2.9c0.8-0.8,1.5-1.5,2.5-2s2-0.8,3.1-0.8h14.7c0.6,0,1.2,0.3,1.7,0.8c0.5,0.5,0.6,1.2,0.6,2.3
		s-0.2,1.9-0.6,2.3c-0.5,0.5-0.9,0.8-1.7,0.8h-15.3c-0.6,0-1.2,0.5-1.7,1.1c-0.5,0.6-0.6,1.4-0.6,2.2c0,0.9,0.3,1.5,0.8,2.2
		c0.5,0.6,1.1,0.9,1.9,0.9h9.6c1.1,0,2.2,0.3,3.1,0.8c0.9,0.5,1.9,1.1,2.5,1.9c0.8,0.8,1.2,1.7,1.7,2.9c0.5,1.1,0.6,2.3,0.6,3.6
		s-0.2,2.5-0.6,3.6c-0.5,1.1-0.9,2.2-1.7,2.9s-1.5,1.5-2.5,2c-0.9,0.5-2,0.8-3.1,0.8h-14.8c-0.6,0-1.2-0.3-1.7-0.8
		c-0.5-0.5-0.6-1.2-0.6-2.3c0-1.1,0.2-1.9,0.6-2.3c0.5-0.5,0.9-0.8,1.5-0.8h15.6V55z"/>
	<path class="st1" d="M140.3,33.7c0-1.1,0.3-1.9,0.8-2.5c0.5-0.6,1.2-0.9,1.9-0.9h19.9c0.6,0,1.2,0.3,1.7,0.8
		c0.5,0.5,0.6,1.2,0.6,2.3s-0.2,1.9-0.6,2.3s-0.9,0.8-1.5,0.8h-16.2c-0.5,0-0.9,0.2-1.1,0.3c-0.3,0.2-0.5,0.5-0.5,1.1v3.4
		c0,0.9,0.3,1.4,1.1,1.4h7.6c0.6,0,1.1,0.3,1.5,0.8c0.5,0.5,0.6,1.2,0.6,2.2c0,1.1-0.2,1.9-0.6,2.3s-0.9,0.8-1.5,0.8h-7
		c-0.5,0-0.8,0.2-1.1,0.3c-0.3,0.2-0.5,0.5-0.5,0.9v3.6c0,0.6,0.2,0.9,0.5,1.1c0.3,0.2,0.6,0.3,1.1,0.3h16.2c0.6,0,1.2,0.3,1.5,0.8
		c0.3,0.5,0.6,1.2,0.6,2.3c0,1.1-0.2,1.9-0.6,2.3c-0.5,0.5-0.9,0.8-1.7,0.8h-19.9c-0.9,0-1.5-0.3-2-0.9c-0.5-0.6-0.8-1.5-0.8-2.6
		L140.3,33.7L140.3,33.7z"/>
	<path class="st1" d="M169.7,60.7c-0.6-0.3-1.1-0.6-1.2-1.1c-0.2-0.5-0.5-0.9-0.5-1.4c0-0.2,0-0.6,0.2-1.2l8-25
		c0.2-0.6,0.5-0.9,0.8-1.2c0.3-0.3,0.8-0.5,1.2-0.5h4c0.5,0,0.9,0.2,1.2,0.5c0.3,0.3,0.6,0.8,0.8,1.2l5.6,17.3l5.6-17.3
		c0.2-0.6,0.5-0.9,0.8-1.2c0.3-0.3,0.8-0.5,1.2-0.5h4c0.5,0,0.9,0.2,1.2,0.5c0.3,0.3,0.6,0.8,0.8,1.2l8,25c0.2,0.6,0.2,1.1,0.2,1.2
		c0,0.5-0.2,0.9-0.5,1.4c-0.3,0.5-0.6,0.8-1.2,1.1c-0.2,0.2-0.5,0.2-0.6,0.2c-0.2,0-0.3,0-0.6,0c-1.1,0-1.7-0.6-2-1.7l-7.3-22.7
		l-7.1,21.8c-0.3,0.9-0.6,1.5-0.9,2s-0.8,0.8-1.5,0.8h-0.3c-0.6,0-1.1-0.2-1.4-0.6c-0.2-0.3-0.3-0.6-0.6-0.9
		c-0.2-0.3-0.3-0.9-0.5-1.5l-6.8-21.5l-7.3,22.7c-0.3,1.1-1.1,1.7-2,1.7c-0.2,0-0.5,0-0.6,0C170.1,60.9,170,60.9,169.7,60.7z"/>
	<path class="st1" d="M219,60.1c-0.5-0.6-0.6-1.2-0.6-2V37.5c0-0.5-0.2-0.8-0.5-0.9c-0.3-0.2-0.6-0.3-1.1-0.3h-5.4
		c-0.6,0-1.2-0.3-1.5-0.8c-0.5-0.5-0.6-1.2-0.6-2.3s0.2-1.9,0.6-2.3s0.9-0.8,1.7-0.8h18.7c0.6,0,1.2,0.3,1.7,0.8
		c0.5,0.5,0.6,1.2,0.6,2.3s-0.2,1.9-0.6,2.3c-0.5,0.5-0.9,0.8-1.7,0.8H225c-0.5,0-0.9,0.2-1.1,0.3c-0.3,0.2-0.3,0.6-0.3,1.1v20.6
		c0,0.8-0.2,1.5-0.6,2c-0.5,0.5-1.1,0.8-1.9,0.8S219.4,60.7,219,60.1z"/>
	<path class="st1" d="M235.2,33.7c0-1.1,0.3-1.9,0.8-2.5c0.5-0.6,1.2-0.9,1.9-0.9h19.9c0.6,0,1.2,0.3,1.7,0.8
		c0.5,0.5,0.6,1.2,0.6,2.3s-0.2,1.9-0.6,2.3c-0.5,0.5-0.9,0.8-1.7,0.8h-16.2c-0.5,0-0.9,0.2-1.1,0.3c-0.2,0.2-0.3,0.5-0.3,1.1v3.4
		c0,0.9,0.3,1.4,1.1,1.4h7.6c0.6,0,1.1,0.3,1.5,0.8c0.5,0.5,0.6,1.2,0.6,2.2c0,1.1-0.2,1.9-0.6,2.3c-0.5,0.5-0.9,0.8-1.7,0.8h-7
		c-0.5,0-0.8,0.2-1.1,0.3c-0.3,0.2-0.5,0.5-0.5,0.9v3.6c0,0.6,0.2,0.9,0.3,1.1c0.3,0.2,0.6,0.3,1.1,0.3h16.2c0.6,0,1.2,0.3,1.7,0.8
		c0.5,0.5,0.6,1.2,0.6,2.3c0,1.1-0.2,1.9-0.6,2.3c-0.5,0.5-0.9,0.8-1.7,0.8h-19.9c-0.9,0-1.5-0.3-2-0.9c-0.5-0.6-0.8-1.5-0.8-2.6
		V33.7H235.2z"/>
	<path class="st1" d="M284.2,61h-9.7c-1.7,0-3.4-0.5-4.9-1.2c-1.5-0.8-2.9-1.9-4-3.2c-1.1-1.4-2-2.9-2.8-4.9c-0.6-1.9-1.1-3.9-1.1-6
		s0.3-4,1.1-6c0.6-1.9,1.5-3.6,2.8-4.9c1.1-1.4,2.5-2.5,4-3.2c1.5-0.8,3.2-1.2,4.9-1.2h9.7c0.6,0,1.2,0.3,1.7,0.8
		c0.5,0.5,0.6,1.2,0.6,2.3s-0.2,1.9-0.6,2.3s-0.9,0.8-1.7,0.8h-9.7c-1.1,0-2,0.3-2.9,0.8c-0.9,0.5-1.9,1.1-2.5,2
		c-0.8,0.8-1.2,1.9-1.7,2.9c-0.5,1.1-0.6,2.3-0.6,3.7c0,1.2,0.2,2.5,0.6,3.6c0.5,1.1,0.9,2.2,1.7,2.9c0.8,0.8,1.5,1.5,2.5,2
		c0.9,0.5,1.9,0.8,2.8,0.8h10.2c0.6,0,1.2,0.3,1.7,0.8c0.5,0.5,0.6,1.2,0.6,2.3s-0.2,1.9-0.6,2.3C285.7,60.9,285,61,284.2,61z"/>
</g>
<g class="st0">
	<path class="st2" d="M114.2,80c-0.2-0.2-0.2-0.3-0.2-0.6v-6.5c0-0.2,0-0.3-0.2-0.3c0,0-0.2-0.2-0.3-0.2H112c-0.2,0-0.3,0-0.5-0.3
		s-0.2-0.5-0.2-0.8s0-0.6,0.2-0.8c0.2-0.2,0.3-0.3,0.5-0.3h5.1c0.2,0,0.3,0,0.5,0.2c0.2,0.2,0.2,0.5,0.2,0.8s0,0.6-0.2,0.8
		c-0.2,0.2-0.3,0.3-0.5,0.3h-1.4c-0.2,0-0.3,0-0.3,0.2c0,0-0.2,0.2-0.2,0.3v6.5c0,0.3,0,0.5-0.2,0.6c-0.2,0.2-0.3,0.3-0.5,0.3
		S114.3,80.2,114.2,80z"/>
	<path class="st2" d="M126.2,80c-0.2-0.2-0.2-0.3-0.2-0.6v-2c0-0.3,0-0.5-0.2-0.8c-0.2-0.2-0.3-0.3-0.5-0.3h-1.7
		c-0.2,0-0.3-0.2-0.5-0.3c-0.2-0.2-0.2-0.5-0.2-0.6c0-0.2,0-0.5,0.2-0.6c0.2-0.2,0.3-0.3,0.5-0.3h1.7c0.2,0,0.3-0.2,0.5-0.3
		c0.2-0.2,0.2-0.5,0.2-0.8s0-0.5-0.2-0.8s-0.3-0.3-0.5-0.3h-3.1c-0.2,0-0.3,0-0.3,0.2c0,0-0.2,0.2-0.2,0.3v6.5c0,0.3,0,0.5-0.2,0.6
		c-0.2,0.2-0.3,0.3-0.5,0.3s-0.5-0.2-0.5-0.3c-0.2-0.2-0.2-0.3-0.2-0.6v-7.7c0-0.3,0-0.6,0.2-0.8c0.2-0.2,0.3-0.3,0.5-0.3h4
		c0.3,0,0.6,0,0.9,0.2c0.3,0.2,0.5,0.3,0.6,0.6s0.3,0.6,0.5,0.9c0.2,0.3,0.2,0.8,0.2,1.1c0,0.3,0,0.8-0.2,1.1
		c-0.2,0.3-0.3,0.6-0.5,0.9c0.2,0.3,0.3,0.6,0.5,0.9c0.2,0.3,0.2,0.6,0.2,1.1v2c0,0.3,0,0.5-0.2,0.6c-0.2,0.2-0.3,0.3-0.5,0.3
		S126.4,80.2,126.2,80z"/>
	<path class="st2" d="M133.5,70.6c0.5,0,0.9,0.2,1.4,0.3c0.5,0.3,0.8,0.6,1.1,1.1c0.3,0.5,0.6,0.9,0.8,1.5c0.2,0.6,0.3,1.2,0.3,1.9
		v4.2c0,0.3,0,0.5-0.2,0.6s-0.3,0.3-0.5,0.3s-0.5-0.2-0.5-0.3s-0.2-0.3-0.2-0.6v-2.8c0-0.2,0-0.3-0.2-0.3c0,0-0.2-0.2-0.3-0.2h-2
		c-0.2,0-0.3-0.2-0.5-0.3s-0.2-0.5-0.2-0.8c0-0.3,0-0.6,0.2-0.8c0.2-0.2,0.3-0.3,0.5-0.3h2c0.2,0,0.2,0,0.2,0
		c-0.2-0.3-0.2-0.5-0.3-0.8c-0.2-0.3-0.3-0.5-0.5-0.6s-0.3-0.3-0.6-0.5c-0.3-0.2-0.5-0.2-0.6-0.2c-0.3,0-0.6,0-0.8,0.2
		c-0.3,0.2-0.5,0.3-0.6,0.6c-0.2,0.3-0.3,0.6-0.5,0.9c-0.2,0.3-0.2,0.8-0.2,1.1v4c0,0.3,0,0.5-0.2,0.6c-0.2,0.2-0.3,0.3-0.5,0.3
		s-0.5-0.2-0.5-0.3c-0.2-0.2-0.2-0.3-0.2-0.6v-4c0-0.8,0.2-1.4,0.3-2c0.2-0.6,0.5-1.1,0.8-1.5c0.3-0.5,0.8-0.8,1.1-0.9
		C132.7,70.3,133,70.6,133.5,70.6z"/>
	<path class="st2" d="M146.2,71.1c0,0.2,0.2,0.3,0.2,0.5c0,0,0,0.2,0,0.5l-2.2,7.9c0,0.2-0.2,0.3-0.2,0.5c-0.2,0.2-0.2,0.2-0.3,0.2
		h-1.1c-0.2,0-0.3,0-0.3-0.2c-0.2-0.2-0.2-0.3-0.2-0.5L140,72c0-0.2,0-0.3,0-0.5c0-0.2,0-0.3,0.2-0.5c0-0.2,0.2-0.3,0.3-0.3h0.2h0.2
		c0.3,0,0.5,0.2,0.6,0.5l2,7.1l2-7.1c0.2-0.3,0.3-0.5,0.6-0.5h0.2h0.2C146,70.8,146,70.9,146.2,71.1z"/>
	<path class="st2" d="M151.9,70.6c0.5,0,0.9,0.2,1.4,0.3c0.5,0.3,0.8,0.6,1.1,1.1c0.3,0.5,0.6,0.9,0.8,1.5c0.2,0.6,0.3,1.2,0.3,1.9
		v4.2c0,0.3,0,0.5-0.2,0.6s-0.3,0.3-0.5,0.3s-0.5-0.2-0.5-0.3c-0.2-0.2-0.2-0.3-0.2-0.6v-2.8c0-0.2,0-0.3-0.2-0.3
		c0,0-0.2-0.2-0.3-0.2h-2c-0.2,0-0.3-0.2-0.5-0.3s-0.2-0.5-0.2-0.8c0-0.3,0-0.6,0.2-0.8c0.2-0.2,0.3-0.3,0.5-0.3h2
		c0.2,0,0.2,0,0.2,0c-0.2-0.3-0.2-0.5-0.3-0.8c-0.2-0.3-0.3-0.5-0.5-0.6s-0.3-0.3-0.6-0.5c-0.2-0.2-0.5-0.2-0.6-0.2
		c-0.3,0-0.6,0-0.8,0.2c-0.3,0.2-0.5,0.3-0.6,0.6c-0.2,0.3-0.3,0.6-0.5,0.9c-0.2,0.3-0.2,0.8-0.2,1.1v4c0,0.3,0,0.5-0.2,0.6
		c-0.2,0.2-0.3,0.3-0.5,0.3s-0.5-0.2-0.5-0.3c0-0.2-0.2-0.3-0.2-0.6v-4c0-0.8,0.2-1.4,0.3-2c0.2-0.6,0.5-1.1,0.8-1.5
		c0.3-0.5,0.8-0.8,1.1-0.9C151,70.8,151.4,70.6,151.9,70.6z"/>
	<path class="st2" d="M161.5,80.4c-0.5,0-0.9-0.2-1.4-0.3c-0.5-0.3-0.8-0.6-1.1-1.1c-0.3-0.5-0.6-0.9-0.8-1.5
		c-0.2-0.6-0.3-1.2-0.3-1.9v-4.2c0-0.3,0-0.5,0.2-0.6c0.2-0.2,0.3-0.3,0.5-0.3s0.5,0.2,0.5,0.3c0.2,0.2,0.2,0.3,0.2,0.6v4
		c0,0.3,0,0.8,0.2,1.1c0.2,0.3,0.3,0.6,0.5,0.9c0.2,0.3,0.5,0.5,0.6,0.6c0.3,0.2,0.5,0.3,0.8,0.3c0.3,0,0.6,0,0.8-0.2
		c0.3-0.2,0.5-0.3,0.6-0.6c0.2-0.3,0.3-0.6,0.5-0.9c0.2-0.3,0.2-0.8,0.2-1.1v-4c0-0.3,0-0.5,0.2-0.6s0.3-0.3,0.5-0.3
		s0.5,0.2,0.5,0.3c0,0.2,0.2,0.3,0.2,0.6v4c0,0.8-0.2,1.4-0.3,2c-0.2,0.6-0.5,1.1-0.8,1.5c-0.3,0.5-0.8,0.8-1.1,0.9
		C162.4,80.2,161.9,80.4,161.5,80.4z"/>
	<path class="st2" d="M167.8,80c-0.2-0.2-0.2-0.3-0.2-0.6v-2c0-0.3,0-0.8,0.2-1.1c0.2-0.3,0.3-0.6,0.5-0.9c-0.2-0.3-0.3-0.5-0.5-0.9
		c-0.2-0.3-0.2-0.6-0.2-1.1v-2c0-0.3,0-0.5,0.2-0.6c0.2-0.2,0.3-0.3,0.5-0.3s0.5,0.2,0.5,0.3c0.2,0.2,0.2,0.3,0.2,0.6v2
		c0,0.3,0,0.5,0.2,0.8c0.2,0.2,0.3,0.3,0.5,0.3h0.2v1.9h-0.2c-0.2,0-0.3,0.2-0.5,0.3s-0.2,0.5-0.2,0.8v2c0,0.3,0,0.5-0.2,0.6
		s-0.3,0.3-0.5,0.3S168,80.2,167.8,80z M170.6,74.8c0.2-0.2,0.3-0.3,0.5-0.3h1.4c0.2,0,0.3-0.2,0.5-0.3c0.2-0.2,0.2-0.5,0.2-0.8v-2
		c0-0.3,0-0.5,0.2-0.6c0.2-0.2,0.3-0.3,0.5-0.3s0.5,0.2,0.5,0.3c0,0.2,0.2,0.3,0.2,0.6v2c0,0.3,0,0.8-0.2,1.1
		c-0.2,0.3-0.3,0.6-0.5,0.9c0.2,0.3,0.3,0.6,0.5,0.9c0.2,0.3,0.2,0.6,0.2,1.1v2c0,0.3,0,0.5-0.2,0.6s-0.3,0.3-0.5,0.3
		s-0.5-0.2-0.5-0.3c-0.2-0.2-0.2-0.3-0.2-0.6v-2c0-0.3,0-0.5-0.2-0.8c-0.2-0.2-0.3-0.3-0.5-0.3h-1.4c-0.2,0-0.3-0.2-0.5-0.3
		s-0.2-0.5-0.2-0.6C170.4,75.3,170.4,74.9,170.6,74.8z"/>
	<path class="st2" d="M187.4,78.3c0.2,0,0.3-0.2,0.5-0.3c0.2-0.2,0.2-0.5,0.2-0.6c0-0.3,0-0.5-0.2-0.6c-0.2-0.2-0.3-0.3-0.5-0.3
		h-2.6c-0.3,0-0.6,0-0.8-0.2c-0.3-0.2-0.5-0.3-0.6-0.6c-0.2-0.3-0.3-0.6-0.5-0.9c-0.2-0.3-0.2-0.8-0.2-1.1c0-0.5,0-0.8,0.2-1.1
		c0.2-0.3,0.3-0.6,0.5-0.9s0.5-0.5,0.6-0.6c0.3-0.2,0.6-0.2,0.9-0.2h4c0.2,0,0.3,0,0.5,0.3c0.2,0.2,0.2,0.5,0.2,0.8s0,0.6-0.2,0.8
		c-0.2,0.2-0.3,0.3-0.5,0.3h-4.2c-0.2,0-0.3,0.2-0.5,0.3c-0.2,0.2-0.2,0.5-0.2,0.6c0,0.3,0,0.5,0.2,0.8c0.2,0.2,0.3,0.3,0.5,0.3h2.6
		c0.3,0,0.6,0,0.8,0.2c0.3,0.2,0.5,0.3,0.6,0.6c0.2,0.3,0.3,0.6,0.5,0.9c0.2,0.3,0.2,0.8,0.2,1.1s0,0.8-0.2,1.1s-0.3,0.6-0.5,0.9
		c-0.2,0.3-0.5,0.5-0.6,0.6c-0.3,0.2-0.6,0.2-0.9,0.2h-4c-0.2,0-0.3-0.2-0.5-0.3s-0.2-0.5-0.2-0.8s0-0.6,0.2-0.8
		c0.2-0.2,0.3-0.3,0.5-0.3h4.2V78.3z"/>
	<path class="st2" d="M191.9,75.4c0-0.6,0.2-1.2,0.3-1.9c0.2-0.6,0.5-1.1,0.8-1.5c0.3-0.5,0.8-0.8,1.1-1.1c0.5-0.3,0.9-0.3,1.4-0.3
		s0.9,0.2,1.4,0.3c0.5,0.3,0.8,0.6,1.1,1.1c0.3,0.5,0.6,0.9,0.8,1.5s0.3,1.2,0.3,1.9c0,0.6-0.2,1.2-0.3,1.9
		c-0.2,0.6-0.5,1.1-0.8,1.5c-0.3,0.5-0.8,0.8-1.1,1.1c-0.3,0.3-0.9,0.3-1.4,0.3s-0.9-0.2-1.4-0.3c-0.5-0.2-0.8-0.6-1.1-1.1
		c-0.3-0.5-0.6-0.9-0.8-1.5C192.1,76.8,191.9,76.2,191.9,75.4z M193.3,75.4c0,0.5,0,0.8,0.2,1.1s0.3,0.6,0.5,0.9
		c0.2,0.3,0.5,0.5,0.6,0.6c0.3,0.2,0.5,0.2,0.8,0.2c0.3,0,0.6,0,0.8-0.2c0.3-0.2,0.5-0.3,0.6-0.6c0.2-0.3,0.3-0.6,0.5-0.9
		c0.2-0.3,0.2-0.8,0.2-1.1s0-0.8-0.2-1.1s-0.3-0.6-0.5-0.9c-0.2-0.3-0.5-0.5-0.6-0.6c-0.3-0.2-0.5-0.3-0.8-0.3
		c-0.3,0-0.6,0.2-0.8,0.3c-0.3,0.2-0.5,0.3-0.6,0.6c-0.2,0.3-0.3,0.6-0.5,0.9S193.3,75.1,193.3,75.4z"/>
	<path class="st2" d="M205.1,80.4c-0.5,0-0.9-0.2-1.4-0.3c-0.5-0.3-0.8-0.6-1.1-1.1c-0.3-0.5-0.6-0.9-0.8-1.5
		c-0.2-0.6-0.3-1.2-0.3-1.9v-4.2c0-0.3,0-0.5,0.2-0.6c0.2-0.2,0.3-0.3,0.5-0.3s0.5,0.2,0.5,0.3c0,0.2,0.2,0.3,0.2,0.6v4
		c0,0.3,0,0.8,0.2,1.1c0.2,0.3,0.3,0.6,0.5,0.9c0.2,0.3,0.5,0.5,0.6,0.6c0.3,0.2,0.5,0.3,0.8,0.3c0.3,0,0.6,0,0.8-0.2
		c0.3-0.2,0.5-0.3,0.6-0.6c0.2-0.3,0.3-0.6,0.5-0.9c0.2-0.3,0.2-0.8,0.2-1.1v-4c0-0.3,0-0.5,0.2-0.6s0.3-0.3,0.5-0.3
		s0.5,0.2,0.5,0.3c0.2,0.2,0.2,0.3,0.2,0.6v4c0,0.8-0.2,1.4-0.3,2c-0.2,0.6-0.5,1.1-0.8,1.5c-0.3,0.5-0.8,0.8-1.1,0.9
		C205.5,80.2,205.7,80.4,205.1,80.4z"/>
	<path class="st2" d="M216,78.3c0.2,0,0.3-0.2,0.5-0.3c0.2-0.2,0.2-0.5,0.2-0.6c0-0.3,0-0.5-0.2-0.6c-0.2-0.2-0.3-0.3-0.5-0.3h-2.6
		c-0.3,0-0.6,0-0.8-0.2c-0.3-0.2-0.5-0.3-0.6-0.6c-0.2-0.3-0.3-0.6-0.5-0.9c-0.2-0.3-0.2-0.8-0.2-1.1c0-0.5,0-0.8,0.2-1.1
		c0.2-0.3,0.3-0.6,0.5-0.9c0.2-0.3,0.5-0.5,0.6-0.6c0.3-0.2,0.6-0.2,0.9-0.2h4c0.2,0,0.3,0,0.5,0.3c0.2,0.2,0.2,0.5,0.2,0.8
		s0,0.6-0.2,0.8c-0.2,0.2-0.3,0.3-0.5,0.3h-4.2c-0.2,0-0.3,0.2-0.5,0.3c-0.2,0.2-0.2,0.5-0.2,0.6c0,0.3,0,0.5,0.2,0.8
		c0.2,0.2,0.3,0.3,0.5,0.3h2.6c0.3,0,0.6,0,0.8,0.2c0.3,0.2,0.5,0.3,0.6,0.6c0.2,0.3,0.3,0.6,0.5,0.9c0.2,0.3,0.2,0.8,0.2,1.1
		s0,0.8-0.2,1.1s-0.3,0.6-0.5,0.9c-0.2,0.3-0.5,0.5-0.6,0.6c-0.3,0.2-0.6,0.2-0.9,0.2h-4c-0.2,0-0.3-0.2-0.5-0.3s-0.2-0.5-0.2-0.8
		s0-0.6,0.2-0.8c0.2-0.2,0.3-0.3,0.5-0.3h4.2V78.3z"/>
	<path class="st2" d="M224.2,76.3h-3.1c-0.2,0-0.3-0.2-0.5-0.3s-0.2-0.5-0.2-0.8c0-0.3,0-0.6,0.2-0.8c0.2-0.2,0.3-0.3,0.5-0.3h3.1
		c0.2,0,0.3,0.2,0.5,0.3s0.2,0.5,0.2,0.8c0,0.3,0,0.6-0.2,0.8C224.7,76.3,224.5,76.3,224.2,76.3z"/>
	<path class="st2" d="M227.3,80.2c-0.2,0-0.3-0.2-0.3-0.3c0-0.2-0.2-0.3-0.2-0.5c0,0,0-0.2,0-0.5l2.2-7.9c0-0.2,0.2-0.3,0.2-0.5
		c0.2-0.2,0.2-0.2,0.3-0.2h1.1c0.2,0,0.3,0,0.3,0.2c0,0.2,0.2,0.3,0.2,0.5l1.5,5.4l1.5-5.4c0-0.2,0.2-0.3,0.2-0.5
		c0-0.2,0.2-0.2,0.3-0.2h1.1c0.2,0,0.3,0,0.3,0.2c0.2,0.2,0.2,0.3,0.2,0.5l2.2,7.9c0,0.2,0,0.3,0,0.5c0,0.2,0,0.3-0.2,0.5
		c0,0.2-0.2,0.3-0.3,0.3h-0.2h-0.2c-0.3,0-0.5-0.2-0.6-0.5l-2-7.1l-1.9,6.8c0,0.3-0.2,0.5-0.3,0.6c-0.2,0.2-0.2,0.2-0.5,0.2h-0.2
		c-0.2,0-0.3,0-0.5-0.2c0-0.2-0.2-0.2-0.2-0.3s-0.2-0.3-0.2-0.5l-1.9-6.8l-2,7.1c-0.2,0.3-0.3,0.5-0.6,0.5h-0.2
		C226.7,80,227.5,80.2,227.3,80.2z"/>
	<path class="st2" d="M244.9,70.6c0.5,0,0.9,0.2,1.4,0.3c0.5,0.3,0.8,0.6,1.1,1.1c0.3,0.5,0.6,0.9,0.8,1.5c0.2,0.6,0.3,1.2,0.3,1.9
		v4.2c0,0.3,0,0.5-0.2,0.6s-0.3,0.3-0.5,0.3s-0.5-0.2-0.5-0.3s-0.2-0.3-0.2-0.6v-2.8c0-0.2,0-0.3-0.2-0.3c0,0-0.2-0.2-0.3-0.2h-2
		c-0.2,0-0.3-0.2-0.5-0.3s-0.2-0.5-0.2-0.8c0-0.3,0-0.6,0.2-0.8c0.2-0.2,0.3-0.3,0.5-0.3h2c0.2,0,0.2,0,0.2,0
		c-0.2-0.3-0.2-0.5-0.3-0.8c-0.2-0.3-0.3-0.5-0.5-0.6s-0.3-0.3-0.6-0.5c-0.2-0.2-0.5-0.2-0.6-0.2c-0.3,0-0.6,0-0.8,0.2
		c-0.3,0.2-0.5,0.3-0.6,0.6c-0.2,0.3-0.3,0.6-0.5,0.9c-0.2,0.3-0.2,0.8-0.2,1.1v4c0,0.3,0,0.5-0.2,0.6c-0.2,0.2-0.3,0.3-0.5,0.3
		s-0.5-0.2-0.5-0.3c-0.2-0.2-0.2-0.3-0.2-0.6v-4c0-0.8,0.2-1.4,0.3-2c0.2-0.6,0.5-1.1,0.8-1.5c0.3-0.5,0.8-0.8,1.1-0.9
		C244.2,70.3,244.5,70.6,244.9,70.6z"/>
	<path class="st2" d="M256.7,80c-0.2-0.2-0.2-0.3-0.2-0.6v-2c0-0.3,0-0.5-0.2-0.8c-0.2-0.2-0.3-0.3-0.5-0.3h-1.7
		c-0.2,0-0.3-0.2-0.5-0.3s-0.2-0.5-0.2-0.6c0-0.2,0-0.5,0.2-0.6s0.3-0.3,0.5-0.3h1.7c0.2,0,0.3-0.2,0.5-0.3c0.2-0.2,0.2-0.5,0.2-0.8
		s0-0.5-0.2-0.8s-0.3-0.3-0.5-0.3h-3.1c-0.2,0-0.3,0-0.3,0.2c0,0.2-0.2,0.2-0.2,0.3v6.5c0,0.3,0,0.5-0.2,0.6s-0.3,0.3-0.5,0.3
		s-0.5-0.2-0.5-0.3c-0.2-0.2-0.2-0.3-0.2-0.6v-7.7c0-0.3,0-0.6,0.2-0.8c0.2-0.2,0.3-0.3,0.5-0.3h4c0.3,0,0.6,0,0.9,0.2
		c0.3,0.2,0.5,0.3,0.6,0.6c0.2,0.3,0.3,0.6,0.5,0.9c0.2,0.3,0.2,0.8,0.2,1.1c0,0.3,0,0.8-0.2,1.1c-0.2,0.3-0.3,0.6-0.5,0.9
		c0.2,0.3,0.3,0.6,0.5,0.9c0.2,0.3,0.2,0.6,0.2,1.1v2c0,0.3,0,0.5-0.2,0.6c-0.2,0.2-0.3,0.3-0.5,0.3S256.8,80.2,256.7,80z"/>
	<path class="st2" d="M266.6,70.6c0.2,0,0.3,0,0.5,0.3c0.2,0.2,0.2,0.5,0.2,0.8s0,0.6-0.2,0.8c-0.2,0.2-0.3,0.3-0.5,0.3H261
		c-0.2,0-0.3,0-0.5-0.3c-0.2-0.2-0.2-0.5-0.2-0.8s0-0.6,0.2-0.8c0.2-0.2,0.3-0.3,0.5-0.3H266.6z M264.6,75.4V78c0,0.2,0,0.2,0,0.3
		l0.2,0.2h1.9c0.2,0,0.3,0.2,0.5,0.3c0.2,0.2,0.2,0.5,0.2,0.8s0,0.6-0.2,0.8c-0.2,0.2-0.3,0.3-0.5,0.3H261c-0.2,0-0.3-0.2-0.5-0.3
		s-0.2-0.5-0.2-0.8s0-0.6,0.2-0.8c0.2-0.2,0.3-0.3,0.5-0.3h1.7c0.2,0,0.3-0.2,0.3-0.5v-2.5c0-0.3,0-0.5,0.2-0.6s0.3-0.3,0.5-0.3
		s0.3,0.2,0.5,0.3C264.4,74.9,264.6,75.3,264.6,75.4z"/>
	<path class="st2" d="M270.4,80.4c-0.2,0-0.5-0.2-0.5-0.3s-0.2-0.3-0.2-0.6v-7.9c0-0.3,0-0.5,0.2-0.6c0.2-0.2,0.3-0.3,0.5-0.3
		c0,0,0,0,0.2,0c0,0,0,0,0.2,0c0,0,0,0,0.2,0c0,0,0.2,0.2,0.2,0.3c0.2,0.2,0.3,0.3,0.5,0.6c0.2,0.3,0.5,0.6,0.8,1.1
		c0.3,0.5,0.8,1.1,1.2,1.9c0.5,0.8,1.1,1.5,1.9,2.6v-5.6c0-0.3,0-0.5,0.2-0.6s0.3-0.3,0.5-0.3s0.5,0.2,0.5,0.3
		c0.2,0.2,0.2,0.3,0.2,0.6v7.9c0,0.3,0,0.5-0.2,0.6s-0.3,0.3-0.5,0.3s-0.3,0-0.3-0.2c0,0-0.2-0.2-0.2-0.3c0-0.2-0.3-0.3-0.5-0.6
		c-0.2-0.3-0.5-0.6-0.8-1.1c-0.3-0.5-0.8-1.1-1.2-1.7s-1.1-1.5-1.9-2.6v5.6c0,0.3,0,0.5-0.2,0.6S270.6,80.4,270.4,80.4z"/>
	<path class="st2" d="M284,78.3c0.2,0,0.3-0.2,0.5-0.3c0.2-0.2,0.2-0.5,0.2-0.6c0-0.3,0-0.5-0.2-0.6c-0.2-0.2-0.3-0.3-0.5-0.3h-2.6
		c-0.3,0-0.6,0-0.8-0.2c-0.3-0.2-0.5-0.3-0.6-0.6c-0.2-0.3-0.3-0.6-0.5-0.9c-0.2-0.3-0.2-0.8-0.2-1.1c0-0.5,0-0.8,0.2-1.1
		c0.2-0.3,0.3-0.6,0.5-0.9c0.2-0.3,0.5-0.5,0.6-0.6c0.3-0.2,0.6-0.2,0.9-0.2h4c0.2,0,0.3,0,0.5,0.3c0.2,0.2,0.2,0.5,0.2,0.8
		s0,0.6-0.2,0.8c-0.2,0.2-0.3,0.3-0.5,0.3h-4.2c-0.2,0-0.3,0.2-0.5,0.3c-0.2,0.2-0.2,0.5-0.2,0.6c0,0.3,0,0.5,0.2,0.8
		c0.2,0.2,0.3,0.3,0.5,0.3h2.6c0.3,0,0.6,0,0.8,0.2c0.3,0.2,0.5,0.3,0.6,0.6c0.2,0.3,0.3,0.6,0.5,0.9c0.2,0.3,0.2,0.8,0.2,1.1
		s0,0.8-0.2,1.1s-0.3,0.6-0.5,0.9c-0.2,0.3-0.5,0.5-0.6,0.6c-0.3,0.2-0.6,0.2-0.9,0.2h-4c-0.2,0-0.3-0.2-0.5-0.3s-0.2-0.5-0.2-0.8
		s0-0.6,0.2-0.8c0.2-0.2,0.3-0.3,0.5-0.3h4.2V78.3z"/>
</g>
<path class="st3" d="M21.7,81.7c0,0-3.2,2.9-4.2,3.7c-0.8,0.8-2.6,0-2.6,0c-26.6-33.8,0-65.5,0-65.5c3.7-1.2,4.3,0,4.3,0l3.2,3.1
	C-4.2,57.3,21.7,81.7,21.7,81.7z"/>
<circle class="st3" cx="34.4" cy="10.8" r="5.4"/>
<circle class="st4" cx="74.9" cy="64" r="2.6"/>
<circle class="st3" cx="83.1" cy="64.7" r="3.1"/>
<circle class="st3" cx="97" cy="34" r="3.7"/>
<circle class="st3" cx="77.2" cy="37.4" r="2.6"/>
<circle class="st4" cx="78" cy="58.2" r="1.7"/>
<circle class="st3" cx="80.3" cy="44" r="1.7"/>
<circle class="st5" cx="85.6" cy="36.5" r="1.4"/>
<circle class="st5" cx="82.8" cy="32.1" r="1.9"/>
<circle class="st5" cx="93.3" cy="74" r="6.2"/>
<circle class="st5" cx="98.3" cy="62.6" r="4.5"/>
<path class="st4" d="M42.1,30.9C31,34.6,29,47.7,29,47.7c-2.5,14.2,4.5,20.4,4.5,20.4l-1.7,1.7c4.9,7.6,15.5,10.4,15.5,10.4
	c3.1,0.8,2.9-1.4,2.9-1.4c11.6,2,21.8-7,21.8-7c2.3-6.2-3.7-4.2-3.7-4.2c-7.3,8.7-18.1,6.2-18.1,6.2C33,70,33,53.6,33,53.6
	c-0.6-18.5,17.2-20.6,17.2-20.6c0-1.1,8-0.2,8-0.2c2.3,0.8,4.9-2.9,4.9-2.9C52.5,25,42.1,30.9,42.1,30.9z"/>
<polygon class="st4" points="50.2,32.9 49.6,32.7 50.8,32.1 58.8,32.7 51.1,32.7 "/>
<polygon class="st4" points="53.7,28 51.7,28 48.9,28 47.1,28.6 45.5,29 43.2,29.8 41.4,30.9 39.7,31.7 "/>
<path class="st3" d="M56.1,96l-0.2-5.4c-12.8,0.8-22.4-6.2-22.4-6.2l-3.1,4.3C42,97.2,56.1,96,56.1,96z"/>
<path class="st3" d="M78.6,76.3c2.6-6.8-4.3-4.8-4.3-4.8c-7,9.7-22.1,9.1-22.1,9.1c-2.3,0.2-2.5,2.6-2.5,2.6l5.6,0.5V87
	C71.7,86.8,78.6,76.3,78.6,76.3z"/>
<path class="st3" d="M64.4,27.5c-11.9-4.3-19.8-0.8-19.8-0.8C32.9,31,27.8,42.9,27.8,42.9c-6.2,15.5,4.2,26.7,4.2,26.7l-2.5,2
	c-8.5-9.9-5.6-24.9-5.6-24.9c2.6-13.1,14.4-20.4,14.4-20.4l-2-3.1l5.7-2.6l1.4,3.6c18.4-6.3,30.9,6.6,30.9,6.6
	c2.6,5.6-3.2,3.6-3.2,3.6c-1.7-2.6-7.4-4.5-7.4-4.5L64.4,27.5z"/>
<path class="st3" d="M61,10.6c16.2,0.8,28.6,18.1,28.6,18.1c6.6,2.5,5.7-4.3,5.7-4.3l-0.6-1.2C81.6,3.7,57.4,2.8,57.4,2.8
	c-2.9,0-3.6,2.6-3.6,2.6v4.8L61,10.6z"/>
<path class="st5" d="M43.7,11.1c-4.3,2-3.1,5.4-3.1,5.4l1.4,4.3c2.6-1.7,11.9-2,11.9-2C67.5,18.1,78,29.2,78,29.2
	c3.7,1.4,2-2.5,2-2.5C69.3,15,53.7,15.6,53.7,15.6v-5.4C51.3,9.9,43.7,10.8,43.7,11.1z"/>
<path class="st6" d="M33.8,34c-5.6,4.9-7.4,14.4-7.4,13.8c-2.6,14.8,5.6,22.1,5.6,22.1l1.7-1.7c-8.8-11.7-4-23.3-4-23.3
	c2-10,14.7-15.3,14.7-15.3C53.1,25.6,63,30,63,30l0.8-2C45.5,20.4,33.8,34,33.8,34z"/>
<path class="st6" d="M26.5,74l2.6-2.3c11.1,14.1,26.1,12.2,26.1,12.2v6.8c-12.8,0.6-22.4-6.2-22.4-6.2l-3.1,4.3
	c-2.6-0.5-8.5-7.3-8.5-7.3l4.2-3.6C3,47.6,26.2,26.4,26.2,26.4l-3.9-3.7l5.4-4.8c3.2-2,5.1,0.5,5.1,0.5l2.9,4.9
	C4.7,47.1,26.5,74,26.5,74z"/>
<path class="st5" d="M21.7,81.7l4.2-3.6c-23-29.7,0.8-51.6,0.8-51.6l-4.3-3.2C-4.5,58.9,21.7,81.7,21.7,81.7z"/>
<path class="st5" d="M56.1,96l-0.2-5.4c14.7-0.8,23-9.3,23-9.3c0.2-0.6,4.2-2.6,4.2-2.6c11.7-0.2,7.3,9.4,7.3,9.4
	c-27.8,28-61.5,9.1-61.5,9.1c-2-1.4-1.2-3.7-1.2-3.7l2.6-4.5C41.4,96.6,56.1,96,56.1,96z"/>
</svg>
